<?xml version="1.0" encoding="utf-8"?>
<!-- Generator: Adobe Illustrator 15.0.0, SVG Export Plug-In  -->
<!DOCTYPE svg PUBLIC "-//W3C//DTD SVG 1.1//EN" "http://www.w3.org/Graphics/SVG/1.1/DTD/svg11.dtd" [
	<!ENTITY ns_flows "http://ns.adobe.com/Flows/1.0/">
]>
<svg version="1.1"
	 xmlns="http://www.w3.org/2000/svg" xmlns:xlink="http://www.w3.org/1999/xlink" xmlns:a="http://ns.adobe.com/AdobeSVGViewerExtensions/3.0/"
	 x="0px" y="0px" width="842px" height="678px" viewBox="1.083 -102.013 842 678"
	 overflow="visible" enable-background="new 1.083 -102.013 842 678" xml:space="preserve">
<defs>
</defs>
<linearGradient id="SVGID_1_" gradientUnits="userSpaceOnUse" x1="17.0854" y1="656.8281" x2="80.4053" y2="656.8281" gradientTransform="matrix(0.4358 0.9001 -0.9001 0.4358 786.394 -67.7533)">
	<stop  offset="0" style="stop-color:#D85E05"/>
	<stop  offset="0.0348" style="stop-color:#E47704"/>
	<stop  offset="0.0765" style="stop-color:#EE8D02"/>
	<stop  offset="0.1257" style="stop-color:#F59E01"/>
	<stop  offset="0.1866" style="stop-color:#FBA901"/>
	<stop  offset="0.272" style="stop-color:#FEB000"/>
	<stop  offset="0.5091" style="stop-color:#FFB200"/>
	<stop  offset="0.7306" style="stop-color:#FEB000"/>
	<stop  offset="0.8145" style="stop-color:#FBA901"/>
	<stop  offset="0.875" style="stop-color:#F59D01"/>
	<stop  offset="0.9243" style="stop-color:#ED8C02"/>
	<stop  offset="0.9663" style="stop-color:#E37604"/>
	<stop  offset="1" style="stop-color:#D85E05"/>
</linearGradient>
<path fill="url(#SVGID_1_)" d="M215.854,297.584c30.139-10.539,0.785-44.822,3.543-65.47c-3.072-2.103-6.257-2.825-9.617-1.486
	c-2.184,0.871-11.577,1.399-2.486,33.104C209.745,272.282,214.31,288.833,215.854,297.584z"/>
<linearGradient id="SVGID_2_" gradientUnits="userSpaceOnUse" x1="51.2603" y1="701.8936" x2="71.458" y2="701.8936" gradientTransform="matrix(0.4358 0.9001 -0.9001 0.4358 786.394 -67.7533)">
	<stop  offset="0" style="stop-color:#D85E05"/>
	<stop  offset="0.0348" style="stop-color:#E47704"/>
	<stop  offset="0.0765" style="stop-color:#EE8D02"/>
	<stop  offset="0.1257" style="stop-color:#F59E01"/>
	<stop  offset="0.1866" style="stop-color:#FBA901"/>
	<stop  offset="0.272" style="stop-color:#FEB000"/>
	<stop  offset="0.5091" style="stop-color:#FFB200"/>
	<stop  offset="0.7306" style="stop-color:#FEB000"/>
	<stop  offset="0.8145" style="stop-color:#FBA901"/>
	<stop  offset="0.875" style="stop-color:#F59D01"/>
	<stop  offset="0.9243" style="stop-color:#ED8C02"/>
	<stop  offset="0.9663" style="stop-color:#E37604"/>
	<stop  offset="1" style="stop-color:#D85E05"/>
</linearGradient>
<path fill="url(#SVGID_2_)" d="M180.952,304.77c-1.902,0.837-3.952,0.445-6.029-0.247c0.394-0.589,0.729-1.276,1.036-2.075
	c2.157-5.693-1.167-16.301,3.726-19.496c0.585-0.21,1.179-0.454,1.801-0.738c0.006-0.004,0.016-0.012,0.027-0.006
	c1.041-0.235,2.309-0.268,3.857-0.04c0.977,0.139,1.899,0.405,2.778,0.766c-1.101,2.713-1.67,5.944-1.98,9.136
	c-0.314,3.281-0.983,9.293-3.559,11.623C182.069,304.179,181.521,304.537,180.952,304.77z"/>
<linearGradient id="SVGID_3_" gradientUnits="userSpaceOnUse" x1="60.1704" y1="752.9619" x2="70.6553" y2="752.9619" gradientTransform="matrix(0.4358 0.9001 -0.9001 0.4358 786.394 -67.7533)">
	<stop  offset="0" style="stop-color:#FFB200"/>
	<stop  offset="0.4513" style="stop-color:#FEB000"/>
	<stop  offset="0.6221" style="stop-color:#FBA901"/>
	<stop  offset="0.7454" style="stop-color:#F59D01"/>
	<stop  offset="0.8459" style="stop-color:#ED8C02"/>
	<stop  offset="0.9313" style="stop-color:#E37604"/>
	<stop  offset="1" style="stop-color:#D85E05"/>
</linearGradient>
<path fill="url(#SVGID_3_)" d="M148.702,319.205c-1.041,0.226-1.99,0.184-2.868-0.021c-3.086-0.736-5.446-3.504-8.88-3.861
	c-4.884-0.517-9.354,2.664-12.343,6.181l0.179,0.286c3.344-2.264,5.774-3.055,10.007-2.155c2.964,0.654,5.201,2.124,7.721,1.525
	c0.013,0.004,0.021-0.002,0.029-0.005c3.174-0.392,4.618-0.835,7.932-2.53C149.941,318.867,149.348,319.06,148.702,319.205z"/>
<linearGradient id="SVGID_4_" gradientUnits="userSpaceOnUse" x1="63.7197" y1="737.2676" x2="70.6431" y2="737.2676" gradientTransform="matrix(0.4358 0.9001 -0.9001 0.4358 786.394 -67.7533)">
	<stop  offset="0" style="stop-color:#D85E05"/>
	<stop  offset="0.0333" style="stop-color:#E17104"/>
	<stop  offset="0.0869" style="stop-color:#EC8902"/>
	<stop  offset="0.1481" style="stop-color:#F49B01"/>
	<stop  offset="0.2203" style="stop-color:#FAA801"/>
	<stop  offset="0.3141" style="stop-color:#FEB000"/>
	<stop  offset="0.5091" style="stop-color:#FFB200"/>
	<stop  offset="0.6699" style="stop-color:#FEAF00"/>
	<stop  offset="0.7651" style="stop-color:#FAA701"/>
	<stop  offset="0.8433" style="stop-color:#F39901"/>
	<stop  offset="0.9121" style="stop-color:#EA8503"/>
	<stop  offset="0.9743" style="stop-color:#DE6B04"/>
	<stop  offset="1" style="stop-color:#D85E05"/>
</linearGradient>
<path fill="url(#SVGID_4_)" d="M157.872,308.008c-1.966,3.915-3.163,8.711-7.391,10.616c-0.54,0.243-1.132,0.436-1.779,0.581
	c-1.041,0.226-1.99,0.184-2.868-0.021c2.828-2.833,3.889-7.342,7.66-9.652C154.875,308.686,156.354,308.229,157.872,308.008z"/>
<path fill="#FFFFFF" d="M170.474,307.641c0.241-0.082,0.476-0.149,0.726-0.205C170.96,307.511,170.724,307.579,170.474,307.641z"/>
<linearGradient id="SVGID_5_" gradientUnits="userSpaceOnUse" x1="61.7622" y1="720.625" x2="71.4692" y2="720.625" gradientTransform="matrix(0.4358 0.9001 -0.9001 0.4358 786.394 -67.7533)">
	<stop  offset="0" style="stop-color:#FFB200"/>
	<stop  offset="0.4513" style="stop-color:#FEB000"/>
	<stop  offset="0.6221" style="stop-color:#FBA901"/>
	<stop  offset="0.7454" style="stop-color:#F59D01"/>
	<stop  offset="0.8459" style="stop-color:#ED8C02"/>
	<stop  offset="0.9313" style="stop-color:#E37604"/>
	<stop  offset="1" style="stop-color:#D85E05"/>
</linearGradient>
<path fill="url(#SVGID_5_)" d="M174.923,304.522c-2.266-0.759-4.552-1.869-6.674-2.163c-2.669-0.359-4.646-0.012-6.177,0.793
	c-3.379,1.663-5.869,4.015-8.578,6.379c1.381-0.846,2.859-1.302,4.377-1.523c4.311-0.646,8.935,0.531,12.603-0.367
	c0.241-0.082,0.476-0.149,0.726-0.205c3.221-0.852,6.931-1.071,9.752-2.666C179.05,305.606,177,305.215,174.923,304.522z"/>
<linearGradient id="SVGID_6_" gradientUnits="userSpaceOnUse" x1="51.2207" y1="679.5039" x2="81.6714" y2="679.5039" gradientTransform="matrix(0.4358 0.9001 -0.9001 0.4358 786.394 -67.7533)">
	<stop  offset="0" style="stop-color:#FFB200"/>
	<stop  offset="0.2074" style="stop-color:#FDAE00"/>
	<stop  offset="0.4319" style="stop-color:#F7A101"/>
	<stop  offset="0.6644" style="stop-color:#ED8B02"/>
	<stop  offset="0.901" style="stop-color:#DF6D04"/>
	<stop  offset="1" style="stop-color:#D85E05"/>
</linearGradient>
<path fill="url(#SVGID_6_)" d="M213.787,300.23c3.923-2.521,7.556-5.375,11.225-7.998c-1.816,0.922-4.188,0.251-6.82-1.022
	c-3.817-1.864-11.941-12.796-15.908-14.127c-2.754-0.925-5.034-1.132-6.939-0.791l-0.012-0.069
	c-4.27,0.517-9.432,3.988-13.819,5.984c1.041-0.235,2.309-0.268,3.857-0.04c0.977,0.139,1.899,0.405,2.778,0.766
	c6.523,2.583,14.858,17.819,22.391,18.028c1.247,0.037,2.287-0.29,3.158-0.866L213.787,300.23z"/>
<linearGradient id="SVGID_7_" gradientUnits="userSpaceOnUse" x1="-14.6108" y1="581.2061" x2="108.5405" y2="581.2061" gradientTransform="matrix(0.4358 0.9001 -0.9001 0.4358 786.394 -67.7533)">
	<stop  offset="0" style="stop-color:#D85E05"/>
	<stop  offset="0.0198" style="stop-color:#DB6405"/>
	<stop  offset="0.1581" style="stop-color:#EA8603"/>
	<stop  offset="0.2894" style="stop-color:#F69E01"/>
	<stop  offset="0.4098" style="stop-color:#FDAD00"/>
	<stop  offset="0.5091" style="stop-color:#FFB200"/>
	<stop  offset="0.6196" style="stop-color:#FDAE00"/>
	<stop  offset="0.7255" style="stop-color:#F8A301"/>
	<stop  offset="0.8295" style="stop-color:#EF8F02"/>
	<stop  offset="0.9316" style="stop-color:#E27404"/>
	<stop  offset="1" style="stop-color:#D85E05"/>
</linearGradient>
<path fill="url(#SVGID_7_)" d="M261.972,170.207c2.85-0.722,6.421-0.59,10.831,0.639c0.75,0.21,1.478,0.467,2.172,0.777
	c-1.258,7.562-0.6,15.945,0.655,20.895c1.292,5.095,4.582,9.698,7.391,14.047c6.976,10.787,21.321,34.807,27.361,46.188
	c0.677,8.725,1.908,19.603,5.813,26.384c-0.312,0.662-0.731,1.249-1.248,1.733l-0.189-0.287c-0.694,0.464-1.346,0.985-1.961,1.565
	c-1.342,0.469-3.058,0.57-5.209,0.237c-3.777-0.579-7.411-1.45-10.935-2.516c-2.02-4.076-4.273-7.69-5.958-9.858
	c-13.15-16.991-33.866-53.886-37.562-75.442C251.184,183.192,252.953,172.464,261.972,170.207z"/>
<linearGradient id="SVGID_8_" gradientUnits="userSpaceOnUse" x1="15.1421" y1="643.4844" x2="112.8336" y2="589.9116" gradientTransform="matrix(0.4358 0.9001 -0.9001 0.4358 786.394 -67.7533)">
	<stop  offset="0.4061" style="stop-color:#FFB200"/>
	<stop  offset="0.5609" style="stop-color:#FEAF00"/>
	<stop  offset="0.6833" style="stop-color:#F9A501"/>
	<stop  offset="0.7945" style="stop-color:#F19402"/>
	<stop  offset="0.8984" style="stop-color:#E67D03"/>
	<stop  offset="0.9976" style="stop-color:#D85F05"/>
	<stop  offset="1" style="stop-color:#D85E05"/>
</linearGradient>
<path fill="url(#SVGID_8_)" d="M298.83,298.446c5.155-4.18,11.95-12.529,16.91-18.517c-2.562,3.09-15.896,0.905-19.086-0.061
	c-16.676-5.027-41.499-44.201-49.447-53.501c-4.716-5.52-19.841-20.346-26.613-14.23c-0.796,1.211-1.544,2.474-2.347,3.795
	c-2.75,4.561-10.049,13.498-12.749,17.369c0,0,1.655-1.959,5.15-2.673c3.069-0.694,5.677-0.617,8.75,1.486
	c13.571,9.297,20.787,25.031,31.949,36.706c6.906,7.235,26.661,35.176,37.228,34.284C292.277,302.792,295.688,300.99,298.83,298.446
	z"/>
<path d="M327.357,279.465c-0.506,0.508-1.143,0.914-1.915,1.186c0.545-0.534,1.125-1.012,1.741-1.44L327.357,279.465z"/>
<linearGradient id="SVGID_9_" gradientUnits="userSpaceOnUse" x1="23.3809" y1="593.9453" x2="132.7665" y2="368.0205" gradientTransform="matrix(0.4358 0.9001 -0.9001 0.4358 786.394 -67.7533)">
	<stop  offset="0" style="stop-color:#FE8A01"/>
	<stop  offset="0.2594" style="stop-color:#FE9901"/>
	<stop  offset="0.6946" style="stop-color:#FFAB00"/>
	<stop  offset="1" style="stop-color:#FFB200"/>
</linearGradient>
<path fill="url(#SVGID_9_)" d="M347.858,291.821c41.548,1.634,84.597,6.93,125.348-4.789c48.41-13.914,48.685-70.881,22.021-109.299
	c-49.407-71.177-128.487-48.696-196.721-23.599c-12.278,4.516-24.087,12.931-36.533,16.072c2.852-0.722,6.422-0.59,10.83,0.639
	c0.75,0.21,1.478,0.467,2.172,0.777c8.628,3.744,13.789,14.474,17.955,22.336c5.246,9.856,14.392,35.966,16.404,46.88
	c0.445,2.385,0.652,6.773,1.048,11.913c0.85,10.994,1.931,24.346,11.688,31.478C329.175,289.417,338.287,291.442,347.858,291.821z"
	/>
<path fill="#FFFFFF" d="M182.801,281.443c0.512-0.335,1.107-0.585,1.801-0.739C183.981,280.988,183.384,281.231,182.801,281.443z"/>
<path fill="#FFFFFF" d="M229.036,290.093c-0.276,0.259-0.584,0.465-0.897,0.629C228.435,290.501,228.733,290.302,229.036,290.093z"
	/>
<path fill="#FFFFFF" d="M218.479,278.306c-0.016,0.054-0.024,0.102-0.035,0.139C218.445,278.409,218.462,278.359,218.479,278.306z"
	/>
<linearGradient id="SVGID_10_" gradientUnits="userSpaceOnUse" x1="-35.1196" y1="-30.0415" x2="-0.6572" y2="-30.0415" gradientTransform="matrix(-0.2556 0.9668 0.9668 0.2556 676.2941 294.9789)">
	<stop  offset="0" style="stop-color:#D85E05"/>
	<stop  offset="0.0348" style="stop-color:#E47704"/>
	<stop  offset="0.0765" style="stop-color:#EE8D02"/>
	<stop  offset="0.1257" style="stop-color:#F59E01"/>
	<stop  offset="0.1866" style="stop-color:#FBA901"/>
	<stop  offset="0.272" style="stop-color:#FEB000"/>
	<stop  offset="0.5091" style="stop-color:#FFB200"/>
	<stop  offset="0.7306" style="stop-color:#FEB000"/>
	<stop  offset="0.8145" style="stop-color:#FBA901"/>
	<stop  offset="0.875" style="stop-color:#F59D01"/>
	<stop  offset="0.9243" style="stop-color:#ED8C02"/>
	<stop  offset="0.9663" style="stop-color:#E37604"/>
	<stop  offset="1" style="stop-color:#D85E05"/>
</linearGradient>
<path fill="url(#SVGID_10_)" d="M655.829,288.876c3.195,0.72,6.251-0.504,9.256-2.207c-0.787-0.793-1.519-1.752-2.23-2.896
	c-5.055-8.165-2.968-28.251-11.509-31.715c-0.966-0.151-1.968-0.354-3.015-0.603c-0.015-0.003-0.027-0.011-0.042,0
	c-1.688-0.054-3.658,0.281-5.989,1.104c-1.463,0.51-2.811,1.198-4.065,2.023c2.521,3.865,4.379,8.692,5.819,13.542
	c1.48,4.988,4.187,16.749,8.875,19.582C653.915,288.303,654.875,288.683,655.829,288.876z"/>
<linearGradient id="SVGID_11_" gradientUnits="userSpaceOnUse" x1="-14.8613" y1="42.9834" x2="-0.4839" y2="42.9834" gradientTransform="matrix(-0.4419 0.8971 0.8971 0.4419 670.7014 294.303)">
	<stop  offset="0" style="stop-color:#FFB200"/>
	<stop  offset="0.4513" style="stop-color:#FEB000"/>
	<stop  offset="0.6221" style="stop-color:#FBA901"/>
	<stop  offset="0.7454" style="stop-color:#F59D01"/>
	<stop  offset="0.8459" style="stop-color:#ED8C02"/>
	<stop  offset="0.9313" style="stop-color:#E37604"/>
	<stop  offset="1" style="stop-color:#D85E05"/>
</linearGradient>
<path fill="url(#SVGID_11_)" d="M697.519,306.458c1.342,0.364,2.569,0.305,3.701-0.004c3.989-1.133,7.057-5.473,11.493-6.003
	c6.307-0.762,12.044,4.307,15.872,9.886l-0.233,0.446c-4.292-3.608-7.426-4.881-12.896-3.507c-3.824,0.999-6.733,3.293-9.971,2.321
	c-0.022,0.011-0.032,0-0.042-0.004c-4.088-0.653-5.952-1.366-10.217-4.073C695.924,305.91,696.69,306.221,697.519,306.458z"/>
<linearGradient id="SVGID_12_" gradientUnits="userSpaceOnUse" x1="-9.1777" y1="17.2993" x2="5.6714" y2="17.2993" gradientTransform="matrix(-0.2556 0.9668 0.9668 0.2556 676.2941 294.9789)">
	<stop  offset="0" style="stop-color:#D85E05"/>
	<stop  offset="0.0333" style="stop-color:#E17104"/>
	<stop  offset="0.0869" style="stop-color:#EC8902"/>
	<stop  offset="0.1481" style="stop-color:#F49B01"/>
	<stop  offset="0.2203" style="stop-color:#FAA801"/>
	<stop  offset="0.3141" style="stop-color:#FEB000"/>
	<stop  offset="0.5091" style="stop-color:#FFB200"/>
	<stop  offset="0.6699" style="stop-color:#FEAF00"/>
	<stop  offset="0.7651" style="stop-color:#FAA701"/>
	<stop  offset="0.8433" style="stop-color:#F39901"/>
	<stop  offset="0.9121" style="stop-color:#EA8503"/>
	<stop  offset="0.9743" style="stop-color:#DE6B04"/>
	<stop  offset="1" style="stop-color:#D85E05"/>
</linearGradient>
<path fill="url(#SVGID_12_)" d="M685.785,288.696c3.457,5.47,4.005,13.776,9.441,16.824c0.698,0.39,1.464,0.7,2.293,0.938
	c1.342,0.364,2.569,0.305,3.701-0.004c-3.623-4.504-4.171-14.284-9.515-16.721C689.745,288.842,687.758,288.577,685.785,288.696z"/>
<path fill="#FFFFFF" d="M669.802,290.151c-0.32-0.045-0.634-0.079-0.963-0.094C669.158,290.104,669.477,290.138,669.802,290.151z"/>
<linearGradient id="SVGID_13_" gradientUnits="userSpaceOnUse" x1="-12.7773" y1="-3.894" x2="-0.6309" y2="-3.894" gradientTransform="matrix(-0.2556 0.9668 0.9668 0.2556 676.2941 294.9789)">
	<stop  offset="0" style="stop-color:#FFB200"/>
	<stop  offset="0.4513" style="stop-color:#FEB000"/>
	<stop  offset="0.6221" style="stop-color:#FBA901"/>
	<stop  offset="0.7454" style="stop-color:#F59D01"/>
	<stop  offset="0.8459" style="stop-color:#ED8C02"/>
	<stop  offset="0.9313" style="stop-color:#E37604"/>
	<stop  offset="1" style="stop-color:#D85E05"/>
</linearGradient>
<path fill="url(#SVGID_13_)" d="M665.084,286.669c3.283-1.852,2.104-1.344,4.718-2.438c3.294-1.359,8.5-2.143,10.638-1.355
	c4.687,1.553,7.248,4.013,11.266,6.858c-1.961-0.892-3.947-1.156-5.921-1.037c-5.623,0.305-10.906,1.361-16.945,1.361
	c-4.293-0.342-8.164,0.433-13.011-1.182C659.024,289.596,662.08,288.372,665.084,286.669z"/>
<path fill="#FFFFFF" d="M571.082,276.463c0.638,0.354,1.302,0.598,1.962,0.746C572.392,276.945,571.75,276.707,571.082,276.463z"/>
<linearGradient id="SVGID_14_" gradientUnits="userSpaceOnUse" x1="743.9829" y1="70.8408" x2="921.4133" y2="117.3385" gradientTransform="matrix(-0.9316 0.3635 0.3635 0.9316 1207.0713 -171.4708)">
	<stop  offset="0" style="stop-color:#FFB200"/>
	<stop  offset="0.2765" style="stop-color:#FFA200"/>
	<stop  offset="0.6969" style="stop-color:#FE9001"/>
	<stop  offset="1" style="stop-color:#FE8A01"/>
</linearGradient>
<path fill="url(#SVGID_14_)" d="M595.443,255.92c-17.373-34.253-32.718-75.206-63.809-99.061
	c-33.174-25.453-90.594-28.321-132.062-26.837c-3.112,13.791-15.346,66.755,5.175,69.854c11.978,1.807,24.031-10.385,35.429-6.118
	c19.699,7.383,14.865,48.146-8.845,45.141c-8.944-1.134-20.832-11.811-28.25-3.185c-7.82,9.092-0.912,47.428-0.395,58.721
	c31.482,1.028,84.024,5.24,106.467-18.887c8.396-9.026,13.544-21.555,24.301-28.394c10.418-6.621,25.982-12.117,38.354-9.264
	c9.128,2.104,17.858,8.728,25.63,21.909C596.772,258.508,596.101,257.217,595.443,255.92z"/>
<linearGradient id="SVGID_15_" gradientUnits="userSpaceOnUse" x1="702.3452" y1="171.3193" x2="727.5745" y2="210.0226" gradientTransform="matrix(-0.9316 0.3635 0.3635 0.9316 1207.0713 -171.4708)">
	<stop  offset="0" style="stop-color:#FFB200"/>
	<stop  offset="0.4513" style="stop-color:#FEB000"/>
	<stop  offset="0.6221" style="stop-color:#FBA901"/>
	<stop  offset="0.7454" style="stop-color:#F59D01"/>
	<stop  offset="0.8459" style="stop-color:#ED8C02"/>
	<stop  offset="0.9313" style="stop-color:#E37604"/>
	<stop  offset="1" style="stop-color:#D85E05"/>
</linearGradient>
<path fill="url(#SVGID_15_)" d="M573.984,277.351c3.541,0.345,7.325-1.904,11.276-5.209c4.044-3.401,8.247-7.904,12.553-11.817
	c2.32-2.112,4.678-4.075,7.042-5.586c4.681-2.999,17.187-8.22,20.229-8.269l0.001-0.114c6.771-0.485,15.812,3.332,23.203,5.1
	c-1.682-0.051-3.663,0.289-5.986,1.108c-1.473,0.511-2.819,1.196-4.072,2.013c-9.323,5.97-20.327,28.238-34.221,32.131
	c-1.96,0.545-4.125,0.568-6.401,0.236c-8.302-1.205-18.055-7.178-24.537-9.732C573.378,277.282,573.678,277.334,573.984,277.351z"/>
<linearGradient id="SVGID_16_" gradientUnits="userSpaceOnUse" x1="734.6362" y1="154.3267" x2="755.4904" y2="186.3183" gradientTransform="matrix(-0.9316 0.3635 0.3635 0.9316 1207.0713 -171.4708)">
	<stop  offset="0" style="stop-color:#D96105"/>
	<stop  offset="0.0301" style="stop-color:#E37604"/>
	<stop  offset="0.0722" style="stop-color:#ED8C02"/>
	<stop  offset="0.1219" style="stop-color:#F59D01"/>
	<stop  offset="0.1834" style="stop-color:#FBA801"/>
	<stop  offset="0.2696" style="stop-color:#FEAF00"/>
	<stop  offset="0.5091" style="stop-color:#FFB100"/>
	<stop  offset="0.7312" style="stop-color:#FEAF00"/>
	<stop  offset="0.8153" style="stop-color:#FBA801"/>
	<stop  offset="0.876" style="stop-color:#F59C01"/>
	<stop  offset="0.9254" style="stop-color:#ED8B02"/>
	<stop  offset="0.9674" style="stop-color:#E37504"/>
	<stop  offset="1" style="stop-color:#D85E05"/>
</linearGradient>
<path fill="url(#SVGID_16_)" d="M573.984,277.351c3.541,0.345,7.325-1.904,11.276-5.209c4.044-3.401,8.247-7.904,12.553-11.817
	c-0.673-1.486-1.465-2.965-2.371-4.406c0.658,1.298,1.33,2.59,1.997,3.882c-7.771-13.181-16.502-19.804-25.63-21.909
	c-5.29-1.212-10.735-0.909-16.242,0.518c2.967,5.004,9.718,25.231,10.409,27.266c1.482,4.396,2.956,9.819,7.739,11.576
	C573.804,277.283,573.895,277.323,573.984,277.351z"/>
<linearGradient id="SVGID_17_" gradientUnits="userSpaceOnUse" x1="-334.1572" y1="246.9219" x2="133.648" y2="246.9219">
	<stop  offset="0" style="stop-color:#FFB200"/>
	<stop  offset="0.2765" style="stop-color:#FFA200"/>
	<stop  offset="0.6969" style="stop-color:#FE9001"/>
	<stop  offset="1" style="stop-color:#FE8A01"/>
</linearGradient>
<path fill="url(#SVGID_17_)" d="M112.295,284.885c5.333-2.668,22-10,21.333-20s-29.319-44.041-36.667-59.002
	c-3.933-8.006-2.632-16.691-2-24.666c0.646-8.166,2.334-20-2.552-30.048c-4.061-8.351-18.114-49.618-28.781-61.618
	c0,0,2-13.333-2-19.333s-27.333-22.667-33.333-24C24.366,45.344,11.003,34.752,0,28.292v437.258h0.961c0,0-3.332-58.668,27.334-60
	c30.666-1.334,31.332,2,46.666,0s27.333-6.666,32-11.334c4.667-4.666,8.668-18,5.334-26s-8.666-17.334-8-20.666
	c0.666-3.334,5.128-9.334,9.23-9.334s1.917-5.834,1.353-8.5s-5.25-8.832-15.25-8.832c0,0,17.5-5.418,18.5-7.668
	c2-5.75,0.167-9.666-1.833-10.332C114.295,302.217,106.962,287.551,112.295,284.885z"/>
<linearGradient id="SVGID_18_" gradientUnits="userSpaceOnUse" x1="711.8169" y1="232.3354" x2="902.0787" y2="232.3354">
	<stop  offset="0" style="stop-color:#FE8A01"/>
	<stop  offset="0.2594" style="stop-color:#FE9901"/>
	<stop  offset="0.6946" style="stop-color:#FFAB00"/>
	<stop  offset="1" style="stop-color:#FFB200"/>
</linearGradient>
<path fill="url(#SVGID_18_)" d="M844.348,464.671V0c-63.102,14.498-93.677,65.488-99.562,75.871
	c-7.186,12.678-7.807,34.955-10.291,47.356c-1.876,9.377-7.348,32.693-7.592,38.036c-0.567,12.354,12.77,37.534,10.924,40.265
	s-27.688,54.565-25.925,64.535c1.762,9.971,25.8,5.652,26.61,8.457c0.811,2.809,3.961,10.306,0.904,23.17
	c-3.204,3.396-1,9.02,3,7.89c5.456,1.906,14.587-0.117,27.573,4.792c-6.721,4.951-29.573,4.243-29.573,11.842
	c0,4,3.732,4.887,4.25,5.873c13.217,25.197,2.125,32.179-2.682,43.024c-4.996,11.27,1.002,56.104,50.41,37.417
	c51.779-19.584,52.895-1.89,51.473,56.144H844.348z"/>
</svg>
